<?xml version="1.0" encoding="UTF-8" standalone="no"?>
<!-- Created with Inkscape (http://www.inkscape.org/) -->
<svg
   xmlns:dc="http://purl.org/dc/elements/1.1/"
   xmlns:cc="http://creativecommons.org/ns#"
   xmlns:rdf="http://www.w3.org/1999/02/22-rdf-syntax-ns#"
   xmlns:svg="http://www.w3.org/2000/svg"
   xmlns="http://www.w3.org/2000/svg"
   xmlns:sodipodi="http://sodipodi.sourceforge.net/DTD/sodipodi-0.dtd"
   xmlns:inkscape="http://www.inkscape.org/namespaces/inkscape"
   id="svg2440"
   sodipodi:version="0.32"
   inkscape:version="0.46"
   width="424"
   height="304"
   version="1.0"
   sodipodi:docname="logo_VERIMAG_vectorise.svg"
   inkscape:output_extension="org.inkscape.output.svg.inkscape">
  <metadata
     id="metadata2445">
    <rdf:RDF>
      <cc:Work
         rdf:about="">
        <dc:format>image/svg+xml</dc:format>
        <dc:type
           rdf:resource="http://purl.org/dc/dcmitype/StillImage" />
      </cc:Work>
    </rdf:RDF>
  </metadata>
  <defs
     id="defs2443">
    <inkscape:perspective
       sodipodi:type="inkscape:persp3d"
       inkscape:vp_x="0 : 526.18109 : 1"
       inkscape:vp_y="0 : 1000 : 0"
       inkscape:vp_z="744.09448 : 526.18109 : 1"
       inkscape:persp3d-origin="372.04724 : 350.78739 : 1"
       id="perspective2447" />
  </defs>
  <sodipodi:namedview
     inkscape:window-height="722"
     inkscape:window-width="642"
     inkscape:pageshadow="2"
     inkscape:pageopacity="0.0"
     guidetolerance="10.0"
     gridtolerance="10.0"
     objecttolerance="10.0"
     borderopacity="1.0"
     bordercolor="#666666"
     pagecolor="#ffffff"
     id="base"
     showgrid="false"
     inkscape:zoom="1.2759434"
     inkscape:cx="212"
     inkscape:cy="152"
     inkscape:window-x="575"
     inkscape:window-y="25"
     inkscape:current-layer="g2453" />
  <g
     id="g2453">
    <g
       id="g2485">
      <path
         id="path2477"
         d="M 122.49392,296.62395 C 105.08918,287.45591 92.109323,280.50118 84,275.99854 C 79.325,273.40279 70.55,268.68038 64.5,265.50429 C 58.45,262.32821 45.4,255.34113 35.5,249.97745 C 25.6,244.61377 15.25,239.07057 12.5,237.65921 C 9.75,236.24786 8.0259515,235.07217 8.668781,235.04656 C 9.3116106,235.02095 22.586611,238.1242 38.168781,241.94267 C 53.750951,245.76113 80.45,252.28612 97.5,256.44264 C 129.98477,264.36191 141,267.16169 141,267.4992 C 141,267.61049 140.58975,269.0062 140.08833,270.60078 C 139.58691,272.19535 137.74568,278.225 135.99671,284 C 134.24774,289.775 132.29275,295.92533 131.65229,297.66739 L 130.48783,300.83479 L 122.49392,296.62395 z"
         style="fill:#bccfe0" />
      <path
         id="path2473"
         d="M 5,165.97101 C 5,129.50362 5.1856822,99.854167 5.412627,100.08333 C 5.8192228,100.49391 15.17966,132.19932 23.544762,161.5 C 25.900069,169.75 30.386927,185.275 33.515558,196 C 40.90984,221.34772 42.902307,228.43856 42.681052,228.61836 C 42.581473,228.69928 36.425,229.28626 29,229.92277 C 21.575,230.55927 13.1375,231.34899 10.25,231.67771 L 5,232.27536 L 5,165.97101 z"
         style="fill:#bccfe0" />
      <path
         id="path2457"
         d="M 22,113.88412 C 18.425,109.45832 14.6,104.83104 13.5,103.60127 C 6.1791552,95.41677 4.8768251,93.482659 6.1736541,92.720799 C 6.9031444,92.292239 13.575,88.206544 21,83.641479 C 28.425,79.076413 43.275,70.022395 54,63.521438 C 64.725,57.020481 77.325,49.354569 82,46.486078 C 112.22059,27.943299 124.15508,20.821748 124.4742,21.140869 C 124.82588,21.492548 122.24036,24.298087 100.56673,47.082789 C 95.030029,52.903323 84.65,63.894848 77.5,71.5084 C 70.35,79.121953 62.925,86.977303 61,88.964734 C 59.075,90.952165 51.260923,99.19814 43.635384,107.28912 C 36.009845,115.38011 29.484845,121.98448 29.135384,121.96551 C 28.785923,121.94655 25.575,118.30992 22,113.88412 z"
         style="fill:#bccfe0" />
    </g>
    <g
       id="g2490"
       transform="matrix(-1,0,0,-1,259.92052,320.03632)">
      <path
         id="path2492"
         d="M 122.49392,296.62395 C 105.08918,287.45591 92.109323,280.50118 84,275.99854 C 79.325,273.40279 70.55,268.68038 64.5,265.50429 C 58.45,262.32821 45.4,255.34113 35.5,249.97745 C 25.6,244.61377 15.25,239.07057 12.5,237.65921 C 9.75,236.24786 8.0259515,235.07217 8.668781,235.04656 C 9.3116106,235.02095 22.586611,238.1242 38.168781,241.94267 C 53.750951,245.76113 80.45,252.28612 97.5,256.44264 C 129.98477,264.36191 141,267.16169 141,267.4992 C 141,267.61049 140.58975,269.0062 140.08833,270.60078 C 139.58691,272.19535 137.74568,278.225 135.99671,284 C 134.24774,289.775 132.29275,295.92533 131.65229,297.66739 L 130.48783,300.83479 L 122.49392,296.62395 z"
         style="fill:#bccfe0" />
      <path
         id="path2494"
         d="M 5,165.97101 C 5,129.50362 5.1856822,99.854167 5.412627,100.08333 C 5.8192228,100.49391 15.17966,132.19932 23.544762,161.5 C 25.900069,169.75 30.386927,185.275 33.515558,196 C 40.90984,221.34772 42.902307,228.43856 42.681052,228.61836 C 42.581473,228.69928 36.425,229.28626 29,229.92277 C 21.575,230.55927 13.1375,231.34899 10.25,231.67771 L 5,232.27536 L 5,165.97101 z"
         style="fill:#bccfe0" />
      <path
         id="path2496"
         d="M 22,113.88412 C 18.425,109.45832 14.6,104.83104 13.5,103.60127 C 6.1791552,95.41677 4.8768251,93.482659 6.1736541,92.720799 C 6.9031444,92.292239 13.575,88.206544 21,83.641479 C 28.425,79.076413 43.275,70.022395 54,63.521438 C 64.725,57.020481 77.325,49.354569 82,46.486078 C 112.22059,27.943299 124.15508,20.821748 124.4742,21.140869 C 124.82588,21.492548 122.24036,24.298087 100.56673,47.082789 C 95.030029,52.903323 84.65,63.894848 77.5,71.5084 C 70.35,79.121953 62.925,86.977303 61,88.964734 C 59.075,90.952165 51.260923,99.19814 43.635384,107.28912 C 36.009845,115.38011 29.484845,121.98448 29.135384,121.96551 C 28.785923,121.94655 25.575,118.30992 22,113.88412 z"
         style="fill:#bccfe0" />
    </g>
    <path
       style="fill:#e13d25"
       d="M 136.81563,220.25 C 135.34375,216.5375 131.60999,207.425 128.51838,200 C 125.42677,192.575 120.04114,179.525 116.55031,171 C 113.05947,162.475 104.98259,142.78772 98.601669,127.25049 C 92.220751,111.71325 87,98.775753 87,98.500486 C 87,98.225219 93.019585,98 100.37686,98 L 113.75371,98 L 115.78243,102.75 C 116.89823,105.3625 121.25723,115.825 125.46909,126 C 129.68096,136.175 134.63648,148.1 136.48135,152.5 C 138.32622,156.9 141.94965,165.57743 144.53341,171.78318 L 149.23115,183.06635 L 154.99341,174.28318 C 158.16265,169.45243 171.31773,149.075 184.22693,129 C 215.04931,81.068313 245.78716,33.391217 255.3061,18.75 L 262.94532,7 L 269.03168,7 C 273.65032,7 274.92984,7.3014348 274.33761,8.25 C 273.27519,9.9516682 228.32806,83.295214 215.0463,105 C 209.15649,114.625 202.9555,124.75 201.26631,127.5 C 183.52165,156.38832 143.89884,221.21912 142.44094,223.75 C 141.41125,225.5375 140.32646,227 140.03028,227 C 139.7341,227 138.2875,223.9625 136.81563,220.25 z M 177,224.30841 C 171.92781,221.68767 170.00343,217.10736 170.00155,207.65113 C 169.99893,194.38836 173.5638,190.1558 185.45481,189.30354 C 198.65553,188.35741 205,193.17596 205,204.14788 L 205,210 L 193.5,210 L 182,210 L 182,212.4433 C 182,215.01955 185.26523,218 188.08765,218 C 188.9911,218 190.96979,217.025 192.48475,215.83333 C 194.96847,213.87964 196.87192,213.54844 203.5,213.91667 C 205.99791,214.05544 205.22427,218.71745 202.12834,222.18239 C 199.34026,225.3028 198.98373,225.40682 189.87834,225.75658 C 182.28985,226.04807 179.83203,225.77169 177,224.30841 z M 193,202.08179 C 193,199.19842 191.5593,198 188.09301,198 C 184.30548,198 182,199.40001 182,201.7 C 182,202.60909 183.65385,203 187.5,203 C 190.525,203 193,202.5868 193,202.08179 z M 215.87471,224.79618 C 215.66862,224.08328 215.63349,215.9625 215.79665,206.75 L 216.09329,190 L 221.54665,190 C 226.47906,190 227,190.2077 227,192.17431 L 227,194.34863 L 229.25,192.28925 C 232.19955,189.58959 235.3483,188.69795 239.05636,189.51238 C 242.93026,190.36323 244.91285,193.46856 245.67143,199.87352 C 246.32926,205.42788 246.59215,205.18182 240,205.18182 C 235.22477,205.18182 235.14882,205.13886 234.81642,202.25 C 234.54964,199.93143 234.02935,199.5 231.5,199.5 L 228.5,199.5 L 228,212.5 L 227.5,225.5 L 221.87471,225.79618 C 217.92066,226.00437 216.1381,225.70728 215.87471,224.79618 z M 253,208 L 253,190 L 259,190 L 265,190 L 265,208 L 265,226 L 259,226 L 253,226 L 253,208 z M 274,208 L 274,190 L 279.5,190 C 284.48031,190 285,190.20545 285,192.17431 C 285,194.34604 285.00306,194.34576 287.56282,191.94098 C 289.68613,189.94624 291.16117,189.53333 296.16374,189.53333 C 301.42285,189.53333 302.48974,189.86804 304.43344,192.12772 L 306.66504,194.72212 L 308.90739,192.39233 C 311.76036,189.42809 316.53742,188.52908 321.84345,189.95784 C 328.71089,191.80706 329.5,193.97085 329.5,210.95271 L 329.5,225.5 L 323.59546,225.5 L 317.69092,225.5 L 317.90866,217.26284 C 318.32798,201.39978 316.27109,196.55266 310.27878,199.2828 C 308.17827,200.23981 308.0424,200.97974 307.77878,212.8974 L 307.5,225.5 L 301.83257,225.79744 L 296.16513,226.09488 L 295.83257,213.46475 C 295.5468,202.61212 295.24228,200.64645 293.66875,199.49765 C 292.32976,198.52008 291.08566,198.42278 289.04061,199.13569 C 285.67406,200.30927 285.0272,203.13682 285.01101,216.75 L 285,226 L 279.5,226 L 274,226 L 274,208 z M 341.5,224.79218 C 338.06212,222.82056 337.06466,220.67573 337.0318,215.18426 C 336.97769,206.13901 339.44211,204.0181 350.18218,203.86692 C 354.52178,203.80583 356.62377,204.25453 358.05168,205.54677 C 359.94824,207.26313 360,207.21504 360,203.73678 C 360,198.00574 359.23288,197 354.86163,197 C 352.29577,197 350.73797,197.51927 350.36163,198.5 C 349.54723,200.62227 338,200.66622 338,198.54705 C 338,195.50236 340.37858,192.08487 343.37972,190.81759 C 347.44615,189.10047 363.69674,189.1376 366.83466,190.87118 C 370.90334,193.11896 372,197.70417 372,212.46788 L 372,226 L 366,226 C 360.44898,226 359.99885,225.83163 359.98469,223.75 C 359.97588,222.45643 359.65707,221.96771 359.23469,222.6003 C 357.03637,225.89258 345.83312,227.27722 341.5,224.79218 z M 359.6163,215.39267 C 360.45274,212.06 358.74253,210.89695 353.50863,211.23909 C 350.57723,211.43071 349.42611,211.98025 349.17405,213.30841 C 348.49831,216.86907 349.77,218 354.44956,218 C 358.47826,218 359.03203,217.72055 359.6163,215.39267 z M 385.22507,224.0409 C 383.42387,222.9179 381.51137,220.84499 380.97507,219.43444 C 379.56825,215.73422 379.78069,197.9916 381.26698,195.05474 C 384.0165,189.62179 395.08178,186.73546 406.56108,188.45689 C 412.19371,189.30155 417,193.42977 417,197.42308 C 417,199.87284 416.73464,200 411.62244,200 C 408.06235,200 405.82415,199.49304 405,198.5 C 403.29023,196.43986 394.65336,196.4895 392.57143,198.57143 C 390.40747,200.73539 390.39724,212.69442 392.5567,215.77749 C 393.79332,217.543 395.08873,218 398.8567,218 C 403.84685,218 406,216.75222 406,213.86037 C 406,212.57196 405.02731,212.04023 402.25,211.81037 C 398.81897,211.5264 398.5,211.24482 398.5,208.5 L 398.5,205.5 L 407.88076,205.21074 L 417.26152,204.92149 L 416.79264,213.02109 C 416.11096,224.79671 415.30676,225.41658 400.22497,225.79136 C 389.85115,226.04914 388.12261,225.84743 385.22507,224.0409 z M 253,179.5 L 253,175 L 259,175 L 265,175 L 265,179.5 L 265,184 L 259,184 L 253,184 L 253,179.5 z"
       id="path2455" />
  </g>
</svg>
